<?xml version="1.0" encoding="UTF-8" standalone="no"?>
<!-- Created with Inkscape (http://www.inkscape.org/) -->
<svg id="svg2" xmlns:rdf="http://www.w3.org/1999/02/22-rdf-syntax-ns#" xmlns="http://www.w3.org/2000/svg" xml:space="preserve" viewBox="0 0 765.09 320.5" version="1.1" xmlns:cc="http://creativecommons.org/ns#" xmlns:dc="http://purl.org/dc/elements/1.1/"><metadata id="metadata8"><rdf:RDF><cc:Work rdf:about=""><dc:format>image/svg+xml</dc:format><dc:type rdf:resource="http://purl.org/dc/dcmitype/StillImage"/><dc:title/></cc:Work></rdf:RDF></metadata><g id="g10" transform="matrix(1.25,0,0,-1.25,0,320.5)"><g id="g12" fill-rule="nonzero" fill="#FFF" transform="scale(0.1,0.1)"><path id="path14" d="M631.02,849.88c0-174.24-141.27-315.53-315.52-315.53-174.23,0-315.5,141.29-315.5,315.53,0,174.21,141.27,315.5,315.5,315.5,174.25,0,315.52-141.29,315.52-315.5"/><path id="path16" d="m2480.8,1763,59.99,51.83,365.57,0,43.6-51.83-35.45-176.59-43.64-38.17-431.04,0,40.97,214.76zm523.73-555.75,291.34,244.99,68.18,411.61-223.07,279.07-725.7,0-336.87-283.83-167.77-1013.5,220.81-293.41,810.63-0.199,252.26,293.49,40.29,243.58-413.69,0-11.71-79.06-70.8-51.869-364.04,0.75-45.41,51.239,31.44,198.11,644.11-0.93"/><path id="path18" d="m4635,1089.4-430.12-0.99-15.83-98.02-70.76-51.891-358.51,0-45.09,51.129,116.14,721.58,70.68,51.81,365.53,0,33.02-51.81-9.04-94.73,434.89-0.81,41.01,247.82-193.64,279.45-780.4,0-319.31-279.07-168.58-1018.3,227.36-293.41,811.47,0,255.45,293.41,42.71,243.83-6.98-0.04,0,0.04"/><path id="path20" d="m1431,1008.6-59.83-51.872-160.98,0-43.8,51.872,27.97,182.62,97.65,572.63,389.59,0,60.8,377.36-361.14,0,72.67,422.77-422.82,0-72.699-422.77-198.9,0-60.796-377.36,206.24,0-151.82-916.76,212.54-285.93,603.99,0-8.27,0,236.15,284.35,40.45,242.19-395.33,0-11.66-79.1"/><path id="path22" d="m5908.8,2142.9-455.15,0-92.2-75.12-59.46-43.62,30.44,190.63,56.76,349.17-396.62,0-333.12-2011.9,404.89,0,171.12,1063.5,136.77,94.9,264.65,0,58.45-112.2-168.82-1046.2,384.15,0,209.99,1311.3-211.85,279.49"/><path id="path24" d="m237.78,209.7,0-174.6,9.899,0c15.195,0,29,1.5,41.402,4.5,12.399,3,23.649,7.789,33.75,14.398,10.098,6.6016,17.996,15.699,23.699,27.301,5.7,11.59,8.551,25.289,8.551,41.09,0,16.007-2.851,29.808-8.551,41.41-5.703,11.59-13.652,20.648-23.851,27.148-10.199,6.492-21.449,11.25-33.75,14.25s-26.055,4.5-41.25,4.5h-9.899zm-38.11-25.799v226.2h46.805c36.594,0,66.898-9.648,90.898-28.961,23.996-19.289,36-46.937,36-82.937,0-37.012-11.906-65.313-35.699-84.903-23.81-19.607-54.51-29.396-92.11-29.396h-45.899"/><path id="path26" d="m504.78,113.7c-9.406,9.602-20.707,14.403-33.902,14.403-13.203,0-24.504-4.801-33.902-14.403-9.403-9.597-14.102-21.097-14.102-34.5,0-13.199,4.699-24.66,14.102-34.348,9.398-9.7032,20.699-14.562,33.902-14.562,13.195,0,24.496,4.8593,33.902,14.562,9.395,9.6875,14.094,21.148,14.094,34.348,0,13.402-4.699,24.903-14.094,34.5zm-87.156,18.602c14.496,14.398,32.25,21.597,53.254,21.597,21,0,38.742-7.199,53.246-21.597,14.5-14.403,21.754-32.102,21.754-53.102s-7.254-38.699-21.754-53.098c-14.5-14.401-32.24-21.612-53.24-21.612-21.004,0-38.758,7.2109-53.254,21.613-14.5,14.398-21.746,32.098-21.746,53.098s7.246,38.699,21.746,53.102"/><path id="path28" d="m596.57,149.7,0-17.711,0.598,0c4,6.41,9.352,11.653,16.051,15.762,6.699,4.102,13.75,6.148,21.152,6.148,17.402,0,30.899-8.296,40.496-24.898,4.403,7.59,10.504,13.648,18.301,18.148,7.805,4.5,16.102,6.75,24.902,6.75,30.996,0,46.5-20.207,46.5-60.597v-84h-27v79.5c0,5.3984-0.25,10.148-0.75,14.25-0.5,4.097-1.605,8.398-3.3,12.898-1.704,4.5-4.403,7.949-8.098,10.352-3.703,2.398-8.356,3.59-13.953,3.59-5.602,0-10.352-1.153-14.246-3.442-3.903-2.308-6.903-5.097-9.004-8.398-2.102-3.301-3.75-7.449-4.946-12.449-1.203-5-1.953-9.5004-2.253-13.5-0.301-4-0.45-8.6016-0.45-13.801v-69h-27v74.398c0,4.8008-0.101,8.8008-0.297,12-0.207,3.1992-0.753,7.1988-1.652,12-0.902,4.801-2.203,8.59-3.902,11.403-1.699,2.796-4.25,5.296-7.649,7.5-3.406,2.199-7.5,3.289-12.3,3.289-6.801,0-12.45-1.539-16.95-4.641s-7.699-7.5-9.597-13.199c-1.9-5.7-3.15-11.05-3.75-16.05s-0.9-10.898-0.9-17.699v-69h-27v140.4h27"/><path id="path30" d="m861.17,28.5c14.199,0,25.351,4.8984,33.453,14.699,8.102,9.8008,12.148,21.902,12.148,36.289,0,14.203-4.101,26.16-12.3,35.864-8.203,9.699-19.301,14.539-33.301,14.539-13.399,0-24.149-4.942-32.25-14.84-8.102-9.903-12.149-21.75-12.149-35.563,0-13.988,4-25.988,12-35.988,7.997-10,18.797-15,32.399-15zm71.098,121.2,0-140.4-26.997,0,0,21.898-0.601,0c-12-17.801-27.899-26.711-47.699-26.711-20.602,0-36.953,7.3633-49.047,22.051-12.1,14.712-18.15,32.661-18.15,53.86,0,19.993,6.097,37.25,18.3,51.75,12.2,14.493,28.203,21.75,48.004,21.75,20.196,0,36.399-9.199,48.598-27.597h0.601v23.398h26.997"/><path id="path32" d="m1000.4,149.7,0-140.4-27.003,0,0,140.4,27.003,0zm-26.698,77.551c3.598,3.699,7.992,5.539,13.199,5.539,5.199,0,9.598-1.84,13.199-5.539,3.6-3.699,5.4-8.16,5.4-13.352,0-5-1.8-9.296-5.4-12.898-3.601-3.609-8-5.398-13.199-5.398-5.207,0-9.601,1.789-13.199,5.398-3.602,3.602-5.399,7.898-5.399,12.898,0,5.192,1.797,9.653,5.399,13.352"/><path id="path34" d="m1070.6,149.7,0-18.898,0.6,0c4,7.398,9.85,13.097,17.55,17.097s15.95,6,24.75,6c18.4,0,31.3-5.398,38.7-16.199s11.1-25.711,11.1-44.699v-83.699h-27v80.398c0,13.801-1.95,23.942-5.85,30.449-3.9,6.493-12.25,9.743-25.05,9.743-5.6,0-10.5-0.7-14.7-2.102-4.2-1.391-7.5-3.699-9.9-6.891-2.4-3.199-4.35-6.25-5.85-9.148s-2.55-7-3.15-12.301c-0.6-5.3086-0.95-9.4492-1.05-12.461-0.1-2.9883-0.15-7.3867-0.15-13.188v-64.5h-27v140.4h27"/><path id="path36" d="m1287.5,9.3008,0,237,169.8-177.9,0,167.1,28.19,0,0-235.5-169.8,177.9,0-168.6-28.19,0"/><path id="path38" d="m1583.3,28.5c14.2,0,25.35,4.8984,33.45,14.699,8.1,9.8008,12.15,21.902,12.15,36.289,0,14.203-4.1,26.16-12.3,35.864-8.2,9.699-19.3,14.539-33.3,14.539-13.4,0-24.15-4.942-32.25-14.84-8.1-9.903-12.15-21.75-12.15-35.563,0-13.988,4-25.988,12-35.988s18.8-15,32.4-15zm71.1,121.2,0-140.4-27,0,0,21.898-0.6,0c-12-17.801-27.9-26.711-47.7-26.711-20.6,0-36.95,7.3633-49.05,22.051-12.1,14.711-18.15,32.66-18.15,53.859,0,19.993,6.1,37.25,18.3,51.75,12.2,14.493,28.2,21.75,48,21.75,20.2,0,36.4-9.199,48.6-27.597h0.6v23.398h27"/><path id="path40" d="m1715.6,149.7,0-17.711,0.6,0c4,6.41,9.35,11.653,16.05,15.762,6.7,4.102,13.75,6.148,21.15,6.148,17.4,0,30.9-8.296,40.5-24.898,4.4,7.59,10.5,13.648,18.3,18.148s16.1,6.75,24.9,6.75c31,0,46.5-20.207,46.5-60.597v-84h-27v79.5c0,5.3984-0.25,10.148-0.75,14.25-0.5,4.097-1.61,8.398-3.3,12.898-1.7,4.5-4.4,7.949-8.1,10.352-3.7,2.398-8.36,3.59-13.95,3.59-5.6,0-10.35-1.153-14.25-3.442-3.9-2.308-6.9-5.097-9-8.398s-3.75-7.449-4.95-12.449-1.95-9.5004-2.25-13.5c-0.3-4-0.45-8.6016-0.45-13.801v-69h-27v74.398c0,4.8008-0.1,8.8008-0.3,12s-0.75,7.1988-1.65,12c-0.9,4.801-2.2,8.59-3.9,11.403-1.7,2.796-4.25,5.296-7.65,7.5-3.41,2.199-7.5,3.289-12.3,3.289-6.8,0-12.45-1.539-16.95-4.641s-7.7-7.5-9.6-13.199-3.15-11.051-3.75-16.051-0.9-10.898-0.9-17.699v-69h-27v140.4h27"/><path id="path42" d="m1937.3,95.398,78.6,0c-1.6,10.801-5.8,19.352-12.6,25.653s-15.5,9.449-26.1,9.449c-10.4,0-19.25-3.301-26.55-9.898-7.3-6.602-11.75-15-13.35-25.204zm27-20.398h-107.1c0.2-12.609,4.2-23.5,12-32.699,7.8-9.1992,17.9-13.801,30.3-13.801,9.8,0,17.85,2.2383,24.15,6.75,6.3,4.5,12.25,11.34,17.85,20.551l22.8-12.902c-6.6-12-15.65-21.398-27.15-28.199-11.5-6.8008-24.15-10.211-37.95-10.211-21,0-37.75,7.0117-50.25,21.012-12.5,13.988-18.75,31.602-18.75,52.801,0,22.398,5.9,40.597,17.7,54.597s28.7,21,50.7,21c21.4,0,37.7-6.949,48.9-20.847,11.2-13.91,16.8-31.86,16.8-53.852v-4.1992"/><path id="path44" d="m2144.3,129.3-21.9-11.699c-4.01,8.187-10.01,12.289-18,12.289-3.8,0-7.2-1.34-10.2-4.039-3-2.704-4.5-5.961-4.5-9.75,0-1.801,0.25-3.454,0.75-4.961,0.49-1.493,1.5-2.903,3-4.192,1.5-1.301,2.8-2.461,3.9-3.449,1.09-1.012,2.9-2.148,5.4-3.449,2.5-1.3127,4.45-2.301,5.85-3.0002s3.75-1.7617,7.05-3.1524c3.3-1.3984,5.55-2.3984,6.75-3,10-4.6093,17.89-9.8984,23.7-15.898,5.8-6,8.7-14,8.7-24,0-13.211-4.75-24.25-14.25-33.148-9.5-8.9024-20.85-13.363-34.05-13.363-10.61,0-20.45,2.8633-29.55,8.5625s-15.45,13.348-19.05,22.949l23.1,10.5c6.6-12.012,15.09-18,25.5-18,5.8,0,10.8,1.8398,15,5.5391,4.2,3.7109,6.3,8.4492,6.3,14.262,0,5.789-3.3,10.898-9.9,15.301l-26.4,14.098c-9.2,5-16.01,9.9492-20.4,14.852-4.4,4.8906-6.6,11.75-6.6,20.551,0,11.386,4.05,21.039,12.15,28.949,8.1,7.89,17.85,11.847,29.25,11.847,17.6,0,30.4-8.199,38.4-24.597"/><path id="path46" d="m2380,209.7-81.3,0,0-63.597,78.6,0,0-25.813-78.6,0,0-110.99-28.2,0,0,226.2,109.5,0,0-25.801"/><path id="path48" d="m2506.4,113.7c-9.4,9.602-20.7,14.403-33.9,14.403s-24.5-4.801-33.9-14.403c-9.4-9.597-14.1-21.097-14.1-34.5,0-13.199,4.7-24.66,14.1-34.348,9.4-9.7032,20.7-14.562,33.9-14.562s24.5,4.8593,33.9,14.562c9.4,9.6875,14.1,21.148,14.1,34.348,0,13.402-4.7,24.903-14.1,34.5zm-87.15,18.602c14.5,14.398,32.25,21.597,53.25,21.597s38.75-7.199,53.25-21.597c14.5-14.403,21.75-32.102,21.75-53.102s-7.25-38.699-21.75-53.098c-14.5-14.402-32.25-21.613-53.25-21.613s-38.75,7.2109-53.25,21.613c-14.5,14.398-21.75,32.098-21.75,53.098s7.25,38.699,21.75,53.102"/><path id="path50" d="m2600.8,149.7,0-22.801,0.9,0c3.4,8.391,8.45,15,15.15,19.801,6.69,4.801,14.44,7.199,23.25,7.199,7.59,0,15-2.308,22.2-6.91l-12.3-24.597c-4.41,3.8-9.9,5.711-16.5,5.711-7.01,0-12.8-1.461-17.4-4.352-4.61-2.898-7.95-7-10.05-12.301-2.1-5.308-3.5-10.5-4.2-15.597-0.7-5.1133-1.05-10.961-1.05-17.551v-69h-27v140.4h27"/><path id="path52" d="m2827.9,209.7,0-200.4-28.19,0,0,200.4-53.7,0,0,25.801,135.6,0,0-25.801-53.71,0"/><path id="path54" d="m2900.8,269.7,27,0,0-138.9,0.6,0c4,7.398,9.85,13.097,17.55,17.097s15.95,6,24.75,6c18.4,0,31.3-5.398,38.7-16.199s11.1-25.711,11.1-44.699v-83.699h-27v80.398c0,13.801-1.95,23.942-5.85,30.449-3.9,6.493-12.25,9.743-25.05,9.743-5.6,0-10.5-0.7-14.7-2.102-4.2-1.391-7.5-3.699-9.9-6.891-2.4-3.199-4.35-6.25-5.85-9.148s-2.55-7-3.15-12.301c-0.6-5.3086-0.95-9.4492-1.05-12.461-0.1-2.9883-0.15-7.3867-0.15-13.188v-64.5h-27v260.4"/><path id="path56" d="m3075.4,95.398,78.6,0c-1.6,10.801-5.8,19.352-12.59,25.653-6.81,6.301-15.51,9.449-26.11,9.449-10.4,0-19.25-3.301-26.55-9.898-7.3-6.602-11.75-15-13.35-25.204zm27-20.398-107.1,0c0.19-12.609,4.2-23.5,12.01-32.699,7.79-9.1992,17.89-13.801,30.29-13.801,9.8,0,17.85,2.2383,24.15,6.75,6.3,4.5,12.25,11.34,17.85,20.551l22.81-12.902c-6.61-12-15.66-21.398-27.16-28.199-11.51-6.8008-24.15-10.211-37.95-10.211-21,0-37.76,7.0117-50.25,21.012-12.5,13.988-18.75,31.602-18.75,52.801,0,22.398,5.9,40.597,17.7,54.597s28.7,21,50.7,21c21.4,0,37.7-6.949,48.9-20.847,11.2-13.91,16.81-31.86,16.81-53.852v-4.1992"/><path id="path58" d="m3291.1,9.3008,0,237,169.81-177.9,0,167.1,28.2,0,0-235.5-169.8,177.9,0-168.6-28.21,0"/><path id="path60" d="m3544,95.398,78.61,0c-1.6,10.801-5.8,19.352-12.6,25.653-6.81,6.301-15.51,9.449-26.1,9.449-10.4,0-19.25-3.301-26.56-9.898-7.3-6.602-11.74-15-13.35-25.204zm27-20.398h-107.1c0.19-12.609,4.2-23.5,11.99-32.699,7.8-9.1992,17.9-13.801,30.3-13.801,9.8,0,17.86,2.2383,24.15,6.75,6.3,4.5,12.25,11.34,17.86,20.551l22.8-12.902c-6.6-12-15.66-21.398-27.16-28.199-11.5-6.8008-24.15-10.211-37.95-10.211-20.99,0-37.75,7.0117-50.24,21.012-12.5,13.988-18.75,31.602-18.75,52.801,0,22.398,5.9,40.597,17.69,54.597,11.8,14,28.7,21,50.71,21,21.39,0,37.69-6.949,48.89-20.847,11.2-13.91,16.81-31.86,16.81-53.852v-4.1992"/><path id="path62" d="m3679.9,149.7,40.8-89.41,41.4,97.211,41.1-97.211,40.8,89.41,30.6,0-71.4-145.21-41.1,93.91-41.4-93.91-71.4,145.21,30.6,0"/><path id="path64" d="m4038.7,209.7,0-200.4-28.2,0,0,200.4-53.7,0,0,25.801,135.6,0,0-25.801-53.7,0"/><path id="path66" d="m4099.3,95.398,78.6,0c-1.6,10.801-5.8,19.352-12.6,25.653s-15.51,9.449-26.1,9.449c-10.4,0-19.25-3.301-26.55-9.898-7.31-6.602-11.75-15-13.35-25.204zm27-20.398h-107.1c0.2-12.609,4.2-23.5,11.99-32.699,7.81-9.1992,17.91-13.801,30.31-13.801,9.79,0,17.85,2.2383,24.15,6.75,6.3,4.5,12.24,11.34,17.85,20.551l22.8-12.902c-6.6-12-15.65-21.398-27.16-28.199-11.5-6.8008-24.15-10.211-37.95-10.211-20.99,0-37.75,7.0117-50.24,21.012-12.5,13.988-18.75,31.602-18.75,52.801,0,22.398,5.9,40.597,17.7,54.597,11.79,14,28.7,21,50.7,21,21.4,0,37.69-6.949,48.9-20.847,11.2-13.91,16.8-31.86,16.8-53.852v-4.1992"/><path id="path68" d="m4331.2,144.6,0-34.801c-10.99,12.59-24.4,18.898-40.19,18.898-13.01,0-24.06-4.91-33.16-14.699-9.1-9.801-13.64-21.301-13.64-34.512,0-14.387,4.54-26.289,13.64-35.688,9.1-9.4024,20.75-14.102,34.95-14.102,14.6,0,27.41,6.1992,38.4,18.602v-34.5c-11.6-6.1992-24.5-9.3125-38.7-9.3125-20.8,0-38.54,7.1015-53.24,21.313-14.71,14.199-22.05,31.688-22.05,52.5,0,21.59,7.34,39.597,22.05,54,14.7,14.398,32.95,21.597,54.74,21.597,14.2,0,26.61-3.109,37.2-9.296"/><path id="path70" d="m4360.3,269.7,26.99,0,0-138.9,0.61,0c3.99,7.398,9.84,13.097,17.55,17.097,7.69,4,15.95,6,24.75,6,18.39,0,31.29-5.398,38.7-16.199,7.4-10.801,11.1-25.711,11.1-44.699v-83.699h-27v80.398c0,13.801-1.96,23.942-5.85,30.449-3.9,6.493-12.26,9.743-25.05,9.743-5.61,0-10.5-0.7-14.7-2.102-4.2-1.391-7.5-3.699-9.9-6.891-2.4-3.199-4.36-6.25-5.85-9.148-1.5-2.898-2.55-7-3.15-12.301-0.6-5.3086-0.95-9.4492-1.05-12.461-0.11-2.9883-0.16-7.3867-0.16-13.188v-64.5h-26.99v260.4"/><path id="path72" d="m4635.1,210.29,0-81.891,8.99,0c8.2,0,15.45,0.5,21.75,1.493,6.3,1.007,12.55,2.859,18.75,5.558s11,6.942,14.4,12.75c3.4,5.801,5.1,12.992,5.1,21.602,0,27-20.5,40.488-61.49,40.488h-7.5zm41.09-102.59,71.41-98.398-34.21,0-66.59,95.699-11.7,0,0-95.699-28.21,0,0,226.2,34.2,0c8.6,0,15.55-0.148,20.85-0.449s11.7-1.25,19.2-2.852c7.5-1.597,14.06-4,19.65-7.199,9.2-5.398,16.46-13.012,21.75-22.801,5.3-9.808,7.95-20.211,7.95-31.199,0-16.398-5-30.559-15-42.449-10-11.91-23.1-18.852-39.3-20.852"/><path id="path74" d="m4784.5,95.398,78.61,0c-1.61,10.801-5.81,19.352-12.6,25.653-6.81,6.301-15.51,9.449-26.11,9.449-10.4,0-19.24-3.301-26.55-9.898-7.3-6.602-11.75-15-13.35-25.204zm27-20.398h-107.1c0.19-12.609,4.2-23.5,11.99-32.699,7.8-9.1992,17.9-13.801,30.3-13.801,9.8,0,17.85,2.2383,24.15,6.75,6.3,4.5,12.25,11.34,17.85,20.551l22.81-12.902c-6.6-12-15.66-21.398-27.16-28.199-11.5-6.8008-24.15-10.211-37.95-10.211-21,0-37.75,7.0117-50.24,21.012-12.5,13.988-18.75,31.602-18.75,52.801,0,22.398,5.89,40.597,17.69,54.597s28.7,21,50.7,21c21.4,0,37.7-6.949,48.9-20.847,11.2-13.91,16.81-31.86,16.81-53.852v-4.1992"/><path id="path76" d="m4921,149.7,40.2-87.597,40.5,87.597,30.3,0-70.8-145.21-70.5,145.21,30.3,0"/><path id="path78" d="m5143,113.7c-9.41,9.602-20.71,14.403-33.91,14.403-13.19,0-24.5-4.801-33.89-14.403-9.41-9.597-14.11-21.097-14.11-34.5,0-13.199,4.7-24.66,14.11-34.348,9.39-9.7032,20.7-14.562,33.89-14.562,13.2,0,24.5,4.8593,33.91,14.562,9.39,9.6875,14.1,21.148,14.1,34.348,0,13.402-4.71,24.903-14.1,34.5zm-87.15,18.602c14.49,14.398,32.25,21.597,53.24,21.597,21.01,0,38.75-7.199,53.25-21.597,14.51-14.403,21.75-32.102,21.75-53.102s-7.24-38.699-21.75-53.098c-14.5-14.402-32.24-21.613-53.25-21.613-20.99,0-38.75,7.2109-53.24,21.613-14.51,14.398-21.76,32.098-21.76,53.098s7.25,38.699,21.76,53.102"/><path id="path80" d="m5209.9,9.3008,26.988,0,0,260.4-26.988,0,0-260.4z"/><path id="path82" d="m5274.1,149.7,27,0,0-77.711c0-12.988,2.35-23.297,7.04-30.887,4.7-7.6016,13.16-11.402,25.36-11.402,12.19,0,20.65,3.8008,25.35,11.402,4.69,7.5898,7.05,17.898,7.05,30.887v77.711h27v-80.699c0-20-4.9-35.762-14.7-47.25-9.8-11.5-24.7-17.262-44.7-17.262s-34.91,5.7617-44.7,17.262c-9.81,11.488-14.7,27.25-14.7,47.25v80.699"/><path id="path84" d="m5459.8,124.49,0-115.19-27,0,0,115.19-14.69,0,0,25.211,14.69,0,0,53.699,27,0,0-53.699,26.4,0,0-25.211-26.4,0"/><path id="path86" d="m5533.9,149.7,0-140.4-27.01,0,0,140.4,27.01,0zm-26.7,77.551c3.59,3.699,8,5.539,13.19,5.539,5.21,0,9.6-1.84,13.2-5.539,3.61-3.699,5.4-8.16,5.4-13.352,0-5-1.79-9.296-5.4-12.898-3.6-3.609-7.99-5.398-13.2-5.398-5.19,0-9.6,1.789-13.19,5.398-3.61,3.602-5.4,7.898-5.4,12.898,0,5.192,1.79,9.653,5.4,13.352"/><path id="path88" d="m5673.4,113.7c-9.41,9.602-20.7,14.403-33.91,14.403-13.19,0-24.5-4.801-33.89-14.403-9.41-9.597-14.11-21.097-14.11-34.5,0-13.199,4.7-24.66,14.11-34.348,9.39-9.7032,20.7-14.562,33.89-14.562,13.21,0,24.5,4.8593,33.91,14.562,9.39,9.6875,14.1,21.148,14.1,34.348,0,13.402-4.71,24.903-14.1,34.5zm-87.15,18.602c14.49,14.398,32.25,21.597,53.24,21.597,21.01,0,38.75-7.199,53.25-21.597,14.51-14.403,21.75-32.102,21.75-53.102s-7.24-38.699-21.75-53.098c-14.5-14.402-32.24-21.613-53.25-21.613-20.99,0-38.75,7.2109-53.24,21.613-14.51,14.398-21.76,32.098-21.76,53.098s7.25,38.699,21.76,53.102"/><path id="path90" d="m5766.1,149.7,0-18.898,0.61,0c3.99,7.398,9.84,13.097,17.55,17.097,7.69,4,15.95,6,24.74,6,18.4,0,31.3-5.398,38.71-16.199,7.4-10.801,11.1-25.711,11.1-44.699v-83.699h-27v80.398c0,13.801-1.96,23.942-5.85,30.449-3.9,6.493-12.26,9.743-25.05,9.743-5.61,0-10.5-0.7-14.7-2.102-4.2-1.391-7.5-3.699-9.9-6.891-2.4-3.199-4.36-6.25-5.85-9.148-1.5-2.898-2.55-7-3.15-12.301-0.6-5.3086-0.95-9.4492-1.05-12.461-0.11-2.9883-0.16-7.3867-0.16-13.188v-64.5h-26.99v140.4h26.99"/></g></g></svg>
